<svg width="368" height="389" viewBox="0 0 368 389" fill="none" xmlns="http://www.w3.org/2000/svg">
<path d="M184 367.64C281.556 367.64 360.64 288.556 360.64 191C360.64 93.4448 281.556 14.3604 184 14.3604C86.4444 14.3604 7.35999 93.4448 7.35999 191C7.35999 288.556 86.4444 367.64 184 367.64Z" fill="#ECB751"/>
<path d="M184 330.84C261.231 330.84 323.84 268.232 323.84 191C323.84 113.769 261.231 51.1602 184 51.1602C106.768 51.1602 44.16 113.769 44.16 191C44.16 268.232 106.768 330.84 184 330.84Z" fill="#FAD461"/>
<path d="M237.432 61.8262C255.49 74.7549 270.209 91.7987 280.371 111.547C290.532 131.295 295.844 153.18 295.866 175.389C295.866 212.477 281.133 248.045 254.908 274.27C228.683 300.496 193.114 315.229 156.026 315.229C137.693 315.209 119.543 311.585 102.609 304.562C126.329 321.607 154.791 330.796 184 330.84C221.088 330.84 256.657 316.107 282.882 289.882C309.107 263.657 323.84 228.088 323.84 191C323.829 163.336 315.613 136.298 300.232 113.304C284.852 90.311 262.996 72.3962 237.432 61.8262Z" fill="#ECB751"/>
<path d="M184 0C82.4668 0 0 82.4668 0 184C0 285.533 82.4668 368 184 368C285.533 368 368 285.533 368 184C368 82.4668 285.533 0 184 0ZM184 14.72C277.578 14.72 353.28 90.4221 353.28 184C353.28 277.578 277.578 353.28 184 353.28C90.4221 353.28 14.72 277.578 14.72 184C14.72 90.4221 90.4221 14.72 184 14.72ZM184 36.8C102.791 36.8 36.8 102.791 36.8 184C36.8 216.962 47.6614 247.475 65.9956 272.018C67.1641 273.583 68.9066 274.62 70.8396 274.9C72.7725 275.181 74.7375 274.682 76.3025 273.513C77.8675 272.345 78.9043 270.602 79.1847 268.669C79.4651 266.736 78.966 264.771 77.7975 263.206C61.2902 241.108 51.52 213.733 51.52 184C51.52 110.746 110.746 51.52 184 51.52C257.254 51.52 316.48 110.746 316.48 184C316.48 257.254 257.254 316.48 184 316.48C162.633 316.48 142.498 311.442 124.646 302.479C123.782 302.044 122.841 301.784 121.877 301.713C120.913 301.642 119.944 301.762 119.026 302.066C118.108 302.37 117.259 302.851 116.527 303.483C115.796 304.115 115.195 304.884 114.761 305.748C114.327 306.612 114.067 307.553 113.996 308.517C113.926 309.481 114.046 310.45 114.35 311.368C114.654 312.286 115.135 313.135 115.767 313.866C116.399 314.598 117.169 315.198 118.033 315.632C137.877 325.595 160.312 331.2 184 331.2C265.209 331.2 331.2 265.209 331.2 184C331.2 102.791 265.209 36.8 184 36.8ZM183.885 95.7519C181.936 95.7823 180.078 96.5851 178.719 97.9838C177.361 99.3825 176.613 101.263 176.64 103.213V116.667C175.691 116.836 174.74 116.907 173.794 117.142C173.789 117.142 173.784 117.142 173.779 117.142C156.498 121.432 143.965 136.266 143.965 153.525C143.965 170.725 156.429 185.49 173.621 189.836C183.852 192.937 189.968 191.651 197.095 194.551C206.915 199.951 211.347 210.095 208.523 219.851C205.672 229.702 195.772 236.972 184.028 236.972C172.285 236.972 162.37 229.702 159.519 219.851C159.25 218.922 158.801 218.056 158.197 217.3C157.593 216.545 156.846 215.916 155.999 215.449C155.152 214.982 154.222 214.687 153.26 214.58C152.299 214.473 151.326 214.556 150.398 214.825C149.469 215.094 148.602 215.544 147.846 216.148C147.091 216.752 146.462 217.499 145.996 218.346C145.529 219.194 145.234 220.124 145.128 221.085C145.021 222.047 145.105 223.019 145.374 223.948C149.505 238.22 161.914 248.389 176.64 250.988V264.788C176.626 265.763 176.806 266.731 177.17 267.636C177.533 268.542 178.073 269.365 178.758 270.06C179.443 270.754 180.259 271.306 181.159 271.682C182.059 272.059 183.024 272.253 184 272.253C184.975 272.253 185.941 272.059 186.84 271.682C187.74 271.306 188.556 270.754 189.241 270.06C189.926 269.365 190.466 268.542 190.829 267.636C191.193 266.731 191.373 265.763 191.36 264.788V251.002C206.108 248.42 218.532 238.239 222.668 223.948C227.476 207.334 219.442 189.697 203.837 181.355C203.645 181.256 203.448 181.164 203.248 181.082C192.199 176.385 184.778 177.916 177.732 175.735C177.599 175.693 177.465 175.654 177.329 175.62C166.027 172.814 158.685 163.663 158.685 153.525C158.685 143.384 166.027 134.237 177.329 131.431C188.631 128.628 200.489 133.317 206.079 142.284C206.591 143.105 207.259 143.816 208.046 144.379C208.832 144.941 209.722 145.343 210.664 145.561C211.605 145.78 212.581 145.81 213.535 145.652C214.489 145.493 215.402 145.148 216.222 144.636C217.042 144.124 217.754 143.456 218.316 142.67C218.878 141.883 219.28 140.993 219.498 140.051C219.716 139.109 219.746 138.134 219.587 137.18C219.428 136.226 219.083 135.313 218.571 134.493C212.496 124.748 202.45 118.442 191.359 116.51V103.213C191.373 102.228 191.189 101.251 190.818 100.339C190.447 99.4264 189.896 98.598 189.199 97.9023C188.502 97.2066 187.673 96.658 186.76 96.2887C185.847 95.9194 184.87 95.7365 183.885 95.7519ZM293.509 208.998C292.725 209.047 291.976 209.345 291.373 209.849C290.771 210.354 290.345 211.038 290.16 211.801C284.785 232.321 273.559 250.896 257.816 265.204C257.442 265.525 257.136 265.916 256.916 266.357C256.697 266.797 256.567 267.277 256.536 267.769C256.506 268.26 256.574 268.753 256.736 269.217C256.899 269.682 257.153 270.109 257.484 270.473C257.815 270.838 258.216 271.132 258.662 271.339C259.109 271.546 259.593 271.661 260.085 271.678C260.577 271.695 261.067 271.613 261.527 271.437C261.986 271.26 262.406 270.994 262.761 270.653C279.561 255.383 291.554 235.568 297.29 213.67C297.44 213.134 297.467 212.571 297.368 212.023C297.269 211.475 297.048 210.957 296.72 210.508C296.392 210.058 295.966 209.688 295.475 209.427C294.983 209.165 294.439 209.019 293.883 208.998C293.758 208.992 293.634 208.992 293.509 208.998ZM245.511 275.569C244.809 275.583 244.126 275.797 243.541 276.187C242.016 277.172 240.453 278.119 238.87 279.033C238.023 279.521 237.405 280.326 237.152 281.269C236.899 282.213 237.03 283.218 237.518 284.064C238.006 284.911 238.811 285.529 239.754 285.782C240.698 286.036 241.703 285.904 242.55 285.416C244.239 284.441 245.895 283.419 247.523 282.368C248.205 281.942 248.728 281.303 249.012 280.551C249.297 279.8 249.327 278.975 249.099 278.204C248.871 277.433 248.397 276.758 247.749 276.282C247.101 275.806 246.315 275.556 245.511 275.569ZM92.1727 281.894C90.6466 281.845 89.1431 282.272 87.8703 283.115C86.5976 283.958 85.6186 285.177 85.069 286.601C84.5194 288.026 84.4264 289.586 84.8028 291.066C85.1793 292.545 86.0067 293.871 87.1702 294.86C89.0612 296.513 90.9889 298.12 92.9633 299.676C93.7199 300.297 94.5926 300.761 95.5306 301.041C96.4687 301.32 97.4531 301.41 98.4263 301.305C99.3995 301.199 100.342 300.901 101.198 300.427C102.055 299.953 102.808 299.313 103.414 298.544C104.02 297.776 104.467 296.894 104.728 295.951C104.989 295.007 105.06 294.021 104.935 293.051C104.811 292.08 104.494 291.143 104.003 290.296C103.512 289.449 102.858 288.709 102.077 288.118C100.299 286.717 98.5618 285.265 96.859 283.777C95.5679 282.616 93.908 281.949 92.1727 281.894Z" fill="#E1E4EB"/>
<path d="M135.7 236.222C148.437 236.222 160.888 232.638 171.479 225.923C182.069 219.208 190.324 209.664 195.198 198.497C200.072 187.331 201.347 175.043 198.863 163.189C196.378 151.335 190.244 140.446 181.238 131.899C172.231 123.353 160.756 117.532 148.264 115.174C135.771 112.816 122.823 114.026 111.055 118.652C99.2876 123.277 89.2297 131.11 82.1534 141.16C75.077 151.209 71.3 163.024 71.3 175.111C71.3 191.319 78.085 206.863 90.1623 218.323C102.24 229.784 118.62 236.222 135.7 236.222ZM264.5 266.778C274.053 266.778 283.391 264.09 291.334 259.053C299.277 254.017 305.468 246.859 309.123 238.484C312.779 230.109 313.736 220.894 311.872 212.003C310.008 203.112 305.408 194.945 298.653 188.535C291.898 182.125 283.292 177.76 273.923 175.992C264.554 174.223 254.842 175.131 246.016 178.6C237.191 182.069 229.647 187.944 224.34 195.481C219.033 203.018 216.2 211.879 216.2 220.944C216.2 233.1 221.289 244.758 230.347 253.354C239.405 261.949 251.69 266.778 264.5 266.778ZM328.9 373.722C333.17 373.722 337.265 372.113 340.284 369.247C343.304 366.382 345 362.496 345 358.444C344.987 344.166 340.757 330.176 332.79 318.063C324.823 305.951 313.437 296.199 299.926 289.915C286.414 283.632 271.317 281.068 256.347 282.514C241.377 283.96 227.134 289.359 215.234 298.097C199.464 283.192 179.396 273.051 157.561 268.954C135.726 264.857 113.101 266.987 92.5396 275.076C71.9784 283.164 54.4016 296.85 42.026 314.405C29.6504 331.961 23.0301 352.601 23 373.722C23 377.774 24.6962 381.66 27.7156 384.525C30.7349 387.39 34.83 389 39.1 389H232.3C236.57 389 240.665 387.39 243.684 384.525C246.704 381.66 248.4 377.774 248.4 373.722" fill="url(#paint0_linear_73_1242)"/>
<defs>
<linearGradient id="paint0_linear_73_1242" x1="23" y1="389" x2="357.327" y2="389" gradientUnits="userSpaceOnUse">
<stop stop-color="#3B63DA"/>
<stop offset="1" stop-color="#3B63DA"/>
</linearGradient>
</defs>
</svg>
